<svg xmlns="http://www.w3.org/2000/svg" xmlns:xlink="http://www.w3.org/1999/xlink" width="100px" height="100px" viewBox="0 0 100 100" version="1.1">
<g id="surface1">
<path style=" stroke:none;fill-rule:evenodd;fill:rgb(99.607843%,75.686275%,2.745098%);fill-opacity:1;" d="M 0 50 L 0 100.003906 L 50.097656 99.902344 L 100.195312 99.804688 L 100.292969 49.902344 L 100.394531 0 L 0 0 L 0 50 M 0.191406 50.195312 C 0.191406 77.695312 0.234375 88.886719 0.292969 75.066406 C 0.351562 61.246094 0.351562 38.746094 0.292969 25.066406 C 0.234375 11.386719 0.191406 22.695312 0.191406 50.195312 M 68.457031 17.835938 C 67.90625 18.058594 67.789062 19.765625 68.300781 20.082031 C 68.484375 20.195312 68.835938 19.84375 69.082031 19.304688 C 69.816406 17.699219 69.664062 17.347656 68.457031 17.835938 M 81.4375 26.570312 C 76.253906 31.757812 73.527344 34.230469 73.265625 33.96875 C 73.007812 33.710938 75.085938 31.363281 79.5 26.945312 C 83.144531 23.296875 85.949219 20.3125 85.734375 20.3125 C 85.519531 20.3125 82.71875 22.941406 79.507812 26.15625 L 73.675781 32 L 71.625 30.0625 C 69.4375 27.992188 69.164062 27.867188 68.4375 28.59375 C 68.128906 28.902344 67.835938 28.929688 67.585938 28.679688 C 67.332031 28.425781 68.402344 27.09375 70.710938 24.796875 C 74.558594 20.96875 74.714844 20.703125 73.152344 20.703125 C 72.359375 20.703125 71.390625 21.394531 69.324219 23.449219 L 66.5625 26.191406 L 63.652344 24.851562 C 46.789062 17.066406 26.707031 27.230469 22.484375 45.675781 C 21.953125 48.003906 21.6875 48.414062 18.875 51.242188 C 17.203125 52.921875 16.007812 54.296875 16.210938 54.296875 C 16.417969 54.296875 18.214844 52.675781 20.207031 50.691406 C 22.199219 48.707031 23.828125 47.273438 23.828125 47.5 C 23.828125 47.726562 23.375 48.335938 22.824219 48.855469 C 21.03125 50.539062 21.726562 58.050781 24.210938 63.847656 L 24.925781 65.511719 L 17.734375 72.695312 C 13.78125 76.644531 10.546875 80.140625 10.546875 80.460938 C 10.546875 80.785156 14.144531 77.453125 18.539062 73.0625 C 22.9375 68.667969 26.664062 65.203125 26.820312 65.363281 C 26.980469 65.523438 25.097656 67.710938 22.636719 70.226562 C 18.457031 74.503906 18.417969 74.554688 22.070312 71 L 25.980469 67.199219 L 27.03125 68.851562 C 28.890625 71.773438 32.984375 75.539062 33.554688 74.847656 C 33.824219 74.527344 34.308594 74.367188 34.632812 74.492188 C 35.070312 74.660156 34.535156 75.410156 32.578125 77.382812 C 31.125 78.847656 29.910156 80.40625 29.875 80.84375 C 29.789062 82.007812 30.007812 81.882812 32.695312 79.222656 C 34.035156 77.890625 35.234375 76.902344 35.359375 77.023438 C 35.480469 77.148438 33.777344 79.027344 31.574219 81.203125 C 29.367188 83.378906 27.820312 85.15625 28.128906 85.15625 C 28.441406 85.15625 30.378906 83.480469 32.433594 81.433594 L 36.167969 77.710938 L 39.082031 79.042969 C 57.519531 87.484375 81.171875 73.953125 81.242188 54.921875 C 81.25 53.527344 81.578125 53.0625 85.246094 49.257812 L 89.242188 45.117188 L 84.398438 49.804688 C 81.734375 52.382812 80.007812 53.925781 80.5625 53.234375 C 81.386719 52.203125 81.539062 51.675781 81.394531 50.304688 C 80.792969 44.644531 79.429688 40.382812 76.933594 36.402344 C 76.085938 35.046875 75.390625 33.820312 75.390625 33.671875 C 75.390625 33.527344 78.589844 30.203125 82.5 26.289062 C 86.410156 22.371094 89.523438 19.082031 89.417969 18.972656 C 89.308594 18.867188 85.71875 22.285156 81.4375 26.570312 M 65.078125 20.25 C 64.941406 20.46875 65.023438 20.765625 65.253906 20.910156 C 65.855469 21.28125 66.242188 20.773438 65.742188 20.273438 C 65.460938 19.992188 65.242188 19.984375 65.078125 20.25 M 79.296875 32.421875 C 78.347656 33.757812 78.46875 33.839844 80.125 32.984375 C 81.085938 32.484375 81.21875 32.269531 80.839844 31.8125 C 80.230469 31.078125 80.265625 31.0625 79.296875 32.421875 M 85.644531 35.09375 C 83.105469 36.335938 83.101562 36.523438 85.566406 37.113281 C 87.914062 37.675781 87.972656 37.636719 87.816406 35.636719 L 87.695312 34.085938 L 85.644531 35.09375 M 69.953125 47.492188 C 69.972656 47.949219 70.0625 48.039062 70.1875 47.730469 C 70.300781 47.449219 70.289062 47.109375 70.15625 46.980469 C 70.027344 46.851562 69.9375 47.082031 69.953125 47.492188 M 41.210938 48.4375 C 41.34375 48.652344 41.53125 48.828125 41.625 48.828125 C 41.71875 48.828125 41.796875 48.652344 41.796875 48.4375 C 41.796875 48.222656 41.609375 48.046875 41.382812 48.046875 C 41.15625 48.046875 41.078125 48.222656 41.210938 48.4375 M 46.9375 51.171875 C 46.9375 51.710938 47.023438 51.929688 47.132812 51.660156 C 47.242188 51.390625 47.242188 50.953125 47.132812 50.683594 C 47.023438 50.414062 46.9375 50.632812 46.9375 51.171875 M 53.984375 51.367188 C 53.988281 52.011719 54.078125 52.226562 54.175781 51.847656 C 54.277344 51.46875 54.269531 50.941406 54.164062 50.675781 C 54.054688 50.410156 53.972656 50.722656 53.984375 51.367188 M 60.578125 51.007812 C 60.597656 51.464844 60.6875 51.558594 60.8125 51.246094 C 60.925781 50.964844 60.914062 50.625 60.78125 50.496094 C 60.652344 50.367188 60.5625 50.597656 60.578125 51.007812 M 48.339844 55.371094 C 52.90625 55.433594 60.375 55.433594 64.941406 55.371094 C 69.507812 55.308594 65.773438 55.257812 56.640625 55.257812 C 47.507812 55.257812 43.773438 55.308594 48.339844 55.371094 M 16.507812 64.648438 C 16.089844 66.011719 16.09375 66.015625 17.320312 66.011719 C 20.15625 66 20.464844 65.652344 18.75 64.410156 C 16.839844 63.023438 17.011719 63.007812 16.507812 64.648438 M 34.101562 85.113281 C 33.609375 85.90625 33.792969 86.328125 34.636719 86.328125 C 34.929688 86.328125 35.15625 85.90625 35.15625 85.351562 C 35.15625 84.1875 34.738281 84.09375 34.101562 85.113281 "/>
<path style=" stroke:none;fill-rule:evenodd;fill:rgb(100%,100%,100%);fill-opacity:1;" d="M 44.621094 25.007812 C 32.507812 28.179688 23.828125 39.324219 23.828125 51.703125 C 23.828125 53.988281 23.886719 55.859375 23.957031 55.859375 C 24.03125 55.859375 26.816406 54.453125 30.152344 52.734375 C 38.519531 48.425781 38.515625 48.421875 35.507812 54.421875 C 29.851562 65.707031 29.484375 66.140625 29.09375 61.96875 C 28.945312 60.386719 28.710938 58.917969 28.574219 58.707031 C 28.355469 58.371094 24.210938 57.597656 24.222656 57.898438 C 24.625 68.480469 38.710938 79.792969 51.5625 79.851562 C 77.171875 79.976562 89.589844 47.03125 69.992188 30.972656 L 68.285156 29.574219 L 63.050781 34.800781 C 60.167969 37.675781 57.8125 39.855469 57.8125 39.648438 C 57.8125 39.4375 60.117188 36.957031 62.933594 34.136719 L 68.058594 29 L 64.738281 27.386719 C 58.199219 24.207031 50.941406 23.351562 44.621094 25.007812 M 65.113281 41.269531 C 64.558594 41.820312 64.871094 42.578125 65.652344 42.578125 C 66.199219 42.578125 66.421875 42.367188 66.335938 41.925781 C 66.199219 41.207031 65.53125 40.847656 65.113281 41.269531 M 67.578125 43.894531 C 67.578125 44.421875 67.75 44.914062 67.957031 44.988281 C 68.164062 45.058594 68.449219 46.875 68.59375 49.023438 C 68.894531 53.535156 69.609375 55.195312 69.921875 52.117188 L 70.117188 50.195312 L 71.207031 52.050781 C 72.964844 55.042969 73.703125 54.328125 72.28125 51.007812 L 71.511719 49.21875 L 72.496094 48.574219 C 74.082031 47.535156 73.722656 44.949219 71.875 44.097656 C 69.210938 42.867188 67.578125 42.789062 67.578125 43.894531 M 58.273438 44.027344 C 58.34375 44.390625 58.839844 44.796875 59.375 44.921875 C 60.316406 45.140625 60.359375 45.296875 60.59375 49.089844 C 60.722656 51.257812 60.953125 53.226562 61.105469 53.46875 C 61.828125 54.640625 62.109375 53.566406 62.109375 49.636719 L 62.109375 45.363281 L 63.183594 45.242188 C 66.199219 44.894531 64.683594 43.359375 61.328125 43.359375 C 58.539062 43.359375 58.160156 43.441406 58.273438 44.027344 M 64.84375 48.632812 C 64.84375 53.644531 64.882812 53.90625 65.625 53.90625 C 66.367188 53.90625 66.40625 53.644531 66.40625 48.632812 C 66.40625 43.621094 66.367188 43.359375 65.625 43.359375 C 64.882812 43.359375 64.84375 43.621094 64.84375 48.632812 M 40.929688 46.316406 C 40.589844 47.066406 40.585938 47.503906 40.910156 48.027344 C 41.203125 48.496094 41.21875 48.859375 40.957031 49.117188 C 39.964844 50.113281 40.753906 52.144531 42.1875 52.273438 C 42.9375 52.34375 43.722656 52.5625 43.925781 52.761719 C 44.722656 53.542969 44.921875 53.011719 44.914062 50.097656 C 44.910156 46.832031 44.78125 46.445312 43.484375 45.761719 C 42.160156 45.0625 41.429688 45.222656 40.929688 46.316406 M 50.332031 46.265625 C 50.09375 46.789062 50 47.488281 50.128906 47.820312 C 50.445312 48.648438 51.5625 48.15625 51.5625 47.191406 C 51.5625 46.035156 52.519531 46.5625 52.664062 47.796875 C 52.773438 48.742188 52.6875 48.832031 51.855469 48.621094 C 50.617188 48.3125 49.914062 49.195312 50.070312 50.851562 C 50.183594 52.019531 50.332031 52.160156 51.5625 52.273438 C 52.316406 52.34375 53.097656 52.5625 53.300781 52.761719 C 54.042969 53.488281 54.1875 53.070312 54.261719 50.042969 C 54.359375 46.015625 51.636719 43.398438 50.332031 46.265625 M 55.464844 46.582031 C 54.414062 48.304688 54.472656 48.625 56.054688 49.832031 C 56.839844 50.429688 57.421875 51.21875 57.421875 51.683594 C 57.421875 52.429688 57.332031 52.40625 56.25 51.367188 C 55.1875 50.347656 55.078125 50.316406 55.078125 51.03125 C 55.078125 52.890625 57.40625 54.035156 58.375 52.648438 C 59.226562 51.433594 59.148438 50.996094 57.8125 49.472656 C 56.632812 48.132812 56.335938 47.109375 57 46.699219 C 57.195312 46.578125 57.476562 47.007812 57.617188 47.652344 C 57.914062 49.007812 58.390625 49.15625 58.96875 48.074219 C 60.183594 45.804688 56.8125 44.371094 55.464844 46.582031 M 70.242188 46.902344 C 70.070312 48.726562 70.371094 48.832031 71.445312 47.320312 L 72.238281 46.207031 L 71.3125 45.785156 C 70.4375 45.386719 70.382812 45.441406 70.242188 46.902344 M 45.800781 49.046875 C 46.097656 53.808594 47.246094 54.175781 47.257812 49.511719 C 47.261719 48.277344 47.441406 47.265625 47.65625 47.265625 C 47.871094 47.265625 48.046875 47.585938 48.046875 47.980469 C 48.046875 48.902344 48.375 49.21875 49.0625 48.953125 C 49.78125 48.679688 49.757812 47.648438 49 46.570312 C 48.515625 45.878906 48.238281 45.78125 47.65625 46.09375 C 47.164062 46.355469 46.84375 46.355469 46.679688 46.09375 C 45.917969 44.863281 45.605469 45.910156 45.800781 49.046875 M 42.097656 47.425781 C 41.980469 48.046875 42.117188 48.476562 42.472656 48.613281 C 43.359375 48.953125 43.417969 48.890625 43.289062 47.785156 C 43.125 46.417969 42.335938 46.179688 42.097656 47.425781 M 41.871094 50.289062 C 42.066406 51.304688 43.359375 51.421875 43.359375 50.417969 C 43.359375 49.859375 43.109375 49.609375 42.550781 49.609375 C 41.992188 49.609375 41.78125 49.820312 41.871094 50.289062 M 51.246094 50.292969 C 51.320312 50.667969 51.636719 50.976562 51.953125 50.976562 C 52.269531 50.976562 52.585938 50.667969 52.660156 50.292969 C 52.753906 49.8125 52.542969 49.609375 51.953125 49.609375 C 51.363281 49.609375 51.152344 49.8125 51.246094 50.292969 M 32.09375 54.816406 C 30.046875 56.894531 30.039062 56.90625 30.351562 58.699219 L 30.664062 60.496094 L 32.734375 56.617188 C 35.09375 52.1875 34.988281 51.886719 32.09375 54.816406 M 40.234375 55.660156 C 40.234375 56.175781 42.3125 56.25 57.0625 56.25 C 70.351562 56.25 73.859375 56.148438 73.730469 55.761719 C 73.460938 54.957031 40.234375 54.855469 40.234375 55.660156 "/>
<path style=" stroke:none;fill-rule:evenodd;fill:rgb(0.392157%,0.392157%,0.392157%);fill-opacity:1;" d="M 64.941406 41.894531 C 65.03125 42.164062 65.339844 42.382812 65.625 42.382812 C 65.910156 42.382812 66.21875 42.164062 66.308594 41.894531 C 66.40625 41.605469 66.128906 41.40625 65.625 41.40625 C 65.121094 41.40625 64.84375 41.605469 64.941406 41.894531 M 58.386719 43.769531 C 58.242188 44 58.652344 44.378906 59.3125 44.625 L 60.492188 45.070312 L 60.765625 49.300781 C 60.914062 51.628906 61.191406 53.625 61.378906 53.742188 C 61.828125 54.019531 61.785156 54.296875 62.0625 49.414062 C 62.296875 45.242188 62.328125 45.121094 63.183594 45.238281 C 63.898438 45.339844 64.0625 45.175781 64.0625 44.359375 C 64.0625 43.285156 59.011719 42.761719 58.386719 43.769531 M 67.578125 44.097656 C 67.578125 44.503906 67.84375 44.9375 68.164062 45.0625 C 68.625 45.238281 68.75 46.035156 68.75 48.785156 C 68.75 50.707031 68.855469 52.558594 68.988281 52.898438 C 69.449219 54.105469 69.921875 53.488281 69.929688 51.660156 L 69.9375 49.804688 L 71.101562 51.660156 C 72.871094 54.476562 73.519531 54.292969 72.253906 51.335938 L 71.457031 49.484375 L 72.449219 48.453125 C 74.234375 46.585938 73.730469 44.875 71.125 43.957031 C 68.773438 43.125 67.578125 43.175781 67.578125 44.097656 M 65.160156 48.851562 C 65.246094 52.589844 65.402344 53.914062 65.746094 53.800781 C 66.605469 53.515625 66.59375 43.75 65.734375 43.75 C 65.097656 43.75 65.050781 44.175781 65.160156 48.851562 M 41.476562 45.828125 C 40.726562 46.769531 40.542969 48.046875 41.15625 48.046875 C 41.480469 48.046875 41.855469 47.695312 41.992188 47.265625 C 42.324219 46.21875 43.210938 46.273438 43.503906 47.363281 C 43.871094 48.734375 43.839844 48.773438 42.285156 48.902344 C 41.003906 49.007812 40.804688 49.160156 40.695312 50.121094 C 40.53125 51.546875 41.277344 52.414062 42.542969 52.265625 C 43.101562 52.203125 43.75 52.398438 43.984375 52.699219 C 44.585938 53.46875 45.132812 48 44.5625 46.929688 C 44.027344 45.929688 41.980469 45.199219 41.476562 45.828125 M 50.914062 45.632812 C 50.214844 46.089844 49.90625 48.046875 50.53125 48.046875 C 50.835938 48.046875 51.175781 47.675781 51.296875 47.226562 C 51.585938 46.121094 52.507812 46.484375 52.660156 47.757812 C 52.765625 48.652344 52.625 48.789062 51.488281 48.898438 C 50.398438 49.003906 50.175781 49.195312 50.070312 50.121094 C 49.90625 51.546875 50.652344 52.414062 51.917969 52.265625 C 52.476562 52.203125 53.148438 52.410156 53.414062 52.734375 C 53.808594 53.207031 53.882812 52.65625 53.804688 49.832031 L 53.710938 46.34375 L 52.515625 45.859375 C 51.859375 45.589844 51.136719 45.488281 50.914062 45.632812 M 55.507812 46.777344 L 54.746094 48.242188 L 56.359375 49.902344 C 57.464844 51.035156 57.84375 51.6875 57.570312 51.960938 C 57.296875 52.234375 56.941406 52.113281 56.453125 51.570312 C 55.613281 50.644531 55.078125 50.554688 55.078125 51.339844 C 55.078125 51.839844 57 53.515625 57.570312 53.515625 C 58.863281 53.515625 58.890625 51.136719 57.617188 49.605469 C 56.511719 48.285156 56.332031 47.84375 56.65625 47.234375 C 57.214844 46.191406 57.8125 46.296875 57.8125 47.4375 C 57.8125 48.800781 58.523438 49.054688 58.835938 47.800781 C 59.042969 46.976562 58.90625 46.585938 58.21875 46.027344 C 56.925781 44.980469 56.359375 45.140625 55.507812 46.777344 M 69.921875 47.160156 L 69.921875 49.007812 L 71.191406 47.726562 C 72.421875 46.480469 72.4375 46.425781 71.703125 45.878906 C 70.34375 44.867188 69.921875 45.171875 69.921875 47.160156 M 45.707031 47.214844 C 45.714844 49.273438 46.210938 52.34375 46.539062 52.34375 C 46.722656 52.34375 46.878906 51.421875 46.882812 50.292969 C 46.882812 49.164062 47.039062 48 47.226562 47.703125 C 47.632812 47.0625 48.4375 47.457031 48.4375 48.296875 C 48.4375 48.625 48.65625 48.816406 48.925781 48.722656 C 49.375 48.566406 49.414062 47.761719 49.027344 46.605469 C 48.675781 45.554688 45.703125 46.097656 45.707031 47.214844 M 42.015625 49.523438 C 41.894531 49.640625 41.796875 50.074219 41.796875 50.484375 C 41.796875 51.421875 43.484375 51.296875 43.667969 50.34375 C 43.785156 49.726562 42.464844 49.070312 42.015625 49.523438 M 51.390625 49.523438 C 51.269531 49.640625 51.171875 50.074219 51.171875 50.484375 C 51.171875 51.421875 52.859375 51.296875 53.042969 50.34375 C 53.160156 49.726562 51.839844 49.070312 51.390625 49.523438 M 33.398438 51.109375 C 31.894531 51.933594 28.761719 53.621094 26.4375 54.859375 C 24.109375 56.09375 22.273438 57.171875 22.355469 57.25 C 22.4375 57.332031 23.4375 57.511719 24.578125 57.652344 C 28.6875 58.152344 28.640625 58.113281 29.171875 61.296875 C 29.433594 62.859375 29.703125 64.296875 29.765625 64.484375 C 29.914062 64.921875 37.007812 51.632812 37.179688 50.601562 C 37.382812 49.359375 36.328125 49.503906 33.398438 51.109375 M 32.519531 54.257812 C 30.398438 56.1875 30.082031 56.65625 30.105469 57.828125 C 30.171875 61.089844 30.617188 60.882812 32.976562 56.488281 C 35.664062 51.480469 35.648438 51.414062 32.519531 54.257812 M 40.234375 55.859375 C 40.234375 56.113281 46.027344 56.25 56.835938 56.25 C 67.644531 56.25 73.4375 56.113281 73.4375 55.859375 C 73.4375 55.605469 67.644531 55.46875 56.835938 55.46875 C 46.027344 55.46875 40.234375 55.605469 40.234375 55.859375 "/>
<path style=" stroke:none;fill-rule:evenodd;fill:rgb(17.254902%,94.117647%,96.078431%);fill-opacity:1;" d="M 68.457031 17.835938 C 67.90625 18.058594 67.789062 19.765625 68.300781 20.082031 C 68.484375 20.195312 68.835938 19.84375 69.082031 19.304688 C 69.816406 17.699219 69.664062 17.347656 68.457031 17.835938 M 65.078125 20.25 C 64.941406 20.46875 65.023438 20.765625 65.253906 20.910156 C 65.855469 21.28125 66.242188 20.773438 65.742188 20.273438 C 65.460938 19.992188 65.242188 19.984375 65.078125 20.25 M 79.507812 26.15625 L 73.675781 32 L 71.625 30.0625 C 70.5 28.996094 69.433594 28.125 69.257812 28.125 C 68.800781 28.125 57.8125 39.1875 57.8125 39.648438 C 57.8125 39.855469 60.167969 37.675781 63.050781 34.800781 L 68.285156 29.574219 L 70.09375 31.054688 C 71.085938 31.871094 72.0625 32.820312 72.261719 33.164062 C 72.554688 33.671875 73.863281 32.550781 79.375 27.050781 C 83.089844 23.34375 85.953125 20.3125 85.734375 20.3125 C 85.519531 20.3125 82.71875 22.941406 79.507812 26.15625 M 69.316406 23.449219 L 66.570312 26.195312 L 63.65625 24.851562 C 46.789062 17.066406 26.707031 27.226562 22.484375 45.675781 C 21.953125 48.003906 21.6875 48.414062 18.875 51.242188 C 17.203125 52.921875 16.015625 54.296875 16.226562 54.296875 C 17.539062 54.296875 24.164062 46.601562 24.800781 44.335938 C 29.480469 27.726562 48.648438 19.378906 64.242188 27.15625 L 66.972656 28.519531 L 70.59375 24.914062 C 74.566406 20.957031 74.722656 20.703125 73.140625 20.703125 C 72.328125 20.703125 71.390625 21.375 69.316406 23.449219 M 22.753906 48.917969 C 21.121094 50.660156 21.5625 57.492188 23.246094 56.507812 C 23.964844 56.089844 24.007812 55.75 23.828125 52.015625 L 23.632812 47.980469 L 22.753906 48.917969 M 22.464844 58.660156 C 22.617188 59.375 23.222656 61.21875 23.8125 62.753906 L 24.886719 65.550781 L 17.71875 72.710938 C 13.773438 76.652344 10.546875 80.140625 10.546875 80.460938 C 10.546875 80.785156 14.15625 77.445312 18.570312 73.042969 C 23.652344 67.972656 26.527344 64.824219 26.414062 64.453125 C 24.628906 58.542969 21.453125 53.886719 22.464844 58.660156 M 16.507812 64.648438 C 16.089844 66.011719 16.09375 66.015625 17.320312 66.011719 C 20.15625 66 20.464844 65.652344 18.75 64.410156 C 16.839844 63.023438 17.011719 63.007812 16.507812 64.648438 "/>
<path style=" stroke:none;fill-rule:evenodd;fill:rgb(95.294118%,30.196078%,61.960784%);fill-opacity:1;" d="M 81.359375 26.675781 L 73.496094 34.570312 L 74.480469 35.9375 C 77.261719 39.789062 79.136719 45.253906 79.558594 50.746094 L 79.8125 54.035156 L 80.691406 53.011719 C 82.484375 50.929688 80.480469 42.058594 76.933594 36.402344 C 76.085938 35.046875 75.390625 33.820312 75.390625 33.671875 C 75.390625 33.527344 78.589844 30.203125 82.5 26.289062 C 86.410156 22.371094 89.523438 19.082031 89.417969 18.972656 C 89.308594 18.867188 85.683594 22.332031 81.359375 26.675781 M 79.296875 32.421875 C 78.347656 33.757812 78.46875 33.839844 80.125 32.984375 C 81.085938 32.484375 81.21875 32.269531 80.839844 31.8125 C 80.230469 31.078125 80.265625 31.0625 79.296875 32.421875 M 85.644531 35.09375 C 83.105469 36.335938 83.101562 36.523438 85.566406 37.113281 C 87.914062 37.675781 87.972656 37.636719 87.816406 35.636719 L 87.695312 34.085938 L 85.644531 35.09375 M 64.09375 43.976562 C 64.113281 44.433594 64.203125 44.523438 64.328125 44.214844 C 64.441406 43.933594 64.429688 43.59375 64.296875 43.464844 C 64.167969 43.335938 64.078125 43.566406 64.09375 43.976562 M 64.996094 49.023438 C 64.996094 51.816406 65.058594 52.90625 65.132812 51.449219 C 65.210938 49.988281 65.207031 47.703125 65.132812 46.371094 C 65.054688 45.035156 64.996094 46.230469 64.996094 49.023438 M 68.449219 46.484375 C 68.449219 47.234375 68.53125 47.542969 68.628906 47.167969 C 68.726562 46.792969 68.726562 46.175781 68.628906 45.800781 C 68.53125 45.425781 68.449219 45.730469 68.449219 46.484375 M 69.984375 46.09375 C 69.984375 46.628906 70.074219 46.851562 70.179688 46.582031 C 70.289062 46.3125 70.289062 45.875 70.179688 45.605469 C 70.074219 45.335938 69.984375 45.554688 69.984375 46.09375 M 84.113281 50.097656 C 79.667969 54.609375 79.382812 54.992188 79.113281 56.832031 C 76.445312 75.15625 55.898438 85.269531 38.742188 76.699219 L 35.101562 74.882812 L 32.476562 77.484375 C 30.992188 78.957031 29.855469 80.421875 29.855469 80.863281 C 29.855469 81.976562 29.992188 81.898438 32.695312 79.222656 C 34.035156 77.890625 35.234375 76.902344 35.359375 77.023438 C 35.480469 77.148438 33.777344 79.027344 31.574219 81.203125 C 29.367188 83.378906 27.820312 85.15625 28.128906 85.15625 C 28.441406 85.15625 30.378906 83.480469 32.433594 81.433594 L 36.167969 77.710938 L 39.082031 79.042969 C 57.519531 87.484375 81.171875 73.953125 81.242188 54.921875 C 81.25 53.523438 81.5625 53.082031 85.230469 49.355469 C 87.417969 47.132812 89.125 45.3125 89.019531 45.3125 C 88.914062 45.3125 86.707031 47.464844 84.113281 50.097656 M 51.203125 47.492188 C 51.222656 47.949219 51.3125 48.039062 51.4375 47.730469 C 51.550781 47.449219 51.539062 47.109375 51.40625 46.980469 C 51.277344 46.851562 51.1875 47.082031 51.203125 47.492188 M 54.019531 48.632812 C 54.019531 49.707031 54.097656 50.101562 54.1875 49.507812 C 54.277344 48.914062 54.273438 48.035156 54.179688 47.554688 C 54.089844 47.074219 54.015625 47.558594 54.019531 48.632812 M 43.390625 48.273438 C 43.410156 48.730469 43.5 48.820312 43.625 48.511719 C 43.738281 48.230469 43.726562 47.890625 43.59375 47.761719 C 43.464844 47.632812 43.375 47.863281 43.390625 48.273438 M 46.964844 49.21875 C 46.964844 49.96875 47.046875 50.277344 47.144531 49.902344 C 47.242188 49.527344 47.242188 48.910156 47.144531 48.535156 C 47.046875 48.160156 46.964844 48.464844 46.964844 49.21875 M 54.6875 48.585938 C 54.6875 48.664062 54.996094 48.972656 55.371094 49.269531 C 55.992188 49.753906 56.003906 49.742188 55.519531 49.121094 C 55.007812 48.46875 54.6875 48.265625 54.6875 48.585938 M 57.226562 49.21875 C 57.617188 49.648438 58.023438 50 58.128906 50 C 58.234375 50 58.007812 49.648438 57.617188 49.21875 C 57.226562 48.789062 56.820312 48.4375 56.714844 48.4375 C 56.609375 48.4375 56.835938 48.789062 57.226562 49.21875 M 60.609375 49.609375 C 60.609375 50.148438 60.699219 50.367188 60.804688 50.097656 C 60.914062 49.828125 60.914062 49.390625 60.804688 49.121094 C 60.699219 48.851562 60.609375 49.070312 60.609375 49.609375 M 43.390625 50.226562 C 43.410156 50.683594 43.5 50.777344 43.625 50.464844 C 43.738281 50.183594 43.726562 49.84375 43.59375 49.714844 C 43.464844 49.585938 43.375 49.816406 43.390625 50.226562 M 45.734375 50.226562 C 45.753906 50.683594 45.84375 50.777344 45.96875 50.464844 C 46.082031 50.183594 46.070312 49.84375 45.9375 49.714844 C 45.808594 49.585938 45.71875 49.816406 45.734375 50.226562 M 52.765625 50.226562 C 52.785156 50.683594 52.875 50.777344 53 50.464844 C 53.113281 50.183594 53.101562 49.84375 52.96875 49.714844 C 52.839844 49.585938 52.75 49.816406 52.765625 50.226562 M 44.609375 50.976562 C 44.617188 51.621094 44.703125 51.835938 44.800781 51.457031 C 44.902344 51.078125 44.894531 50.550781 44.789062 50.285156 C 44.679688 50.019531 44.597656 50.332031 44.609375 50.976562 M 61.75 53.351562 C 61.769531 53.808594 61.859375 53.902344 61.984375 53.589844 C 62.097656 53.308594 62.085938 52.96875 61.953125 52.839844 C 61.824219 52.710938 61.734375 52.941406 61.75 53.351562 M 72.160156 53.5625 C 72.425781 53.832031 72.742188 53.949219 72.863281 53.832031 C 72.980469 53.710938 72.765625 53.492188 72.378906 53.34375 C 71.824219 53.132812 71.777344 53.179688 72.160156 53.5625 M 30.625 55.957031 L 29.882812 56.835938 L 30.761719 56.09375 C 31.585938 55.390625 31.820312 55.078125 31.503906 55.078125 C 31.429688 55.078125 31.035156 55.472656 30.625 55.957031 M 73.265625 55.582031 C 73.414062 55.96875 73.632812 56.183594 73.753906 56.066406 C 73.871094 55.945312 73.753906 55.628906 73.484375 55.363281 C 73.101562 54.980469 73.054688 55.027344 73.265625 55.582031 M 29.328125 63.898438 C 29.347656 64.355469 29.4375 64.445312 29.5625 64.136719 C 29.675781 63.855469 29.664062 63.515625 29.53125 63.386719 C 29.402344 63.257812 29.3125 63.488281 29.328125 63.898438 M 22.621094 70.242188 C 18.390625 74.570312 18.363281 74.609375 22.082031 70.992188 L 26 67.179688 L 26.742188 68.453125 C 28.429688 71.351562 32.882812 75.445312 33.621094 74.777344 C 34.257812 74.203125 34.1875 74.0625 32.523438 72.53125 C 31.546875 71.632812 29.921875 69.726562 28.914062 68.289062 L 27.078125 65.679688 L 22.621094 70.242188 M 34.101562 85.113281 C 33.609375 85.90625 33.792969 86.328125 34.636719 86.328125 C 34.929688 86.328125 35.15625 85.90625 35.15625 85.351562 C 35.15625 84.1875 34.738281 84.09375 34.101562 85.113281 "/>
</g>
</svg>
