<svg xmlns="http://www.w3.org/2000/svg" xmlns:xlink="http://www.w3.org/1999/xlink" width="100px" height="100px" viewBox="0 0 100 100" version="1.1">
<g id="surface1">
<path style=" stroke:none;fill-rule:evenodd;fill:rgb(0%,92.54902%,94.117647%);fill-opacity:1;" d="M 68.652344 17.875 C 68.238281 17.964844 67.96875 18.386719 67.96875 18.949219 C 67.96875 20.355469 68.597656 20.445312 69.148438 19.125 C 69.695312 17.804688 69.632812 17.65625 68.652344 17.875 M 65.078125 20.25 C 64.941406 20.46875 65.023438 20.765625 65.253906 20.910156 C 65.855469 21.28125 66.242188 20.773438 65.742188 20.273438 C 65.460938 19.992188 65.242188 19.984375 65.078125 20.25 M 79.507812 26.15625 L 73.675781 32 L 71.625 30.0625 C 70.5 28.996094 69.433594 28.125 69.257812 28.125 C 69.078125 28.125 66.390625 30.671875 63.28125 33.789062 C 60.171875 36.90625 57.804688 39.453125 58.019531 39.453125 C 58.234375 39.453125 60.601562 37.253906 63.28125 34.570312 C 65.960938 31.882812 68.25 29.6875 68.375 29.6875 C 68.496094 29.6875 69.566406 30.554688 70.753906 31.613281 L 72.914062 33.539062 L 79.519531 26.925781 C 83.152344 23.289062 85.949219 20.3125 85.734375 20.3125 C 85.519531 20.3125 82.71875 22.941406 79.507812 26.15625 M 69.316406 23.449219 L 66.570312 26.195312 L 63.648438 24.847656 C 59.4375 22.902344 55.09375 22.113281 50.019531 22.375 C 42.25 22.773438 36.238281 25.460938 30.632812 31.039062 C 27.632812 34.019531 26.796875 35.148438 25.253906 38.28125 C 24.25 40.320312 23.074219 43.398438 22.644531 45.117188 C 21.886719 48.132812 21.75 48.351562 18.847656 51.269531 C 17.191406 52.933594 16.015625 54.296875 16.226562 54.296875 C 16.441406 54.296875 18.246094 52.660156 20.238281 50.660156 C 23.765625 47.117188 23.890625 46.929688 25.15625 43.253906 C 26.738281 38.640625 28.878906 35.277344 32.335938 31.964844 C 37.648438 26.871094 43.03125 24.597656 50.480469 24.304688 C 56 24.085938 59.460938 24.773438 63.980469 26.992188 L 66.992188 28.472656 L 70.605469 24.886719 C 72.59375 22.917969 74.21875 21.167969 74.21875 21.003906 C 74.21875 20.839844 73.734375 20.703125 73.140625 20.703125 C 72.328125 20.703125 71.390625 21.375 69.316406 23.449219 M 22.753906 48.917969 C 21.992188 49.726562 21.875 50.273438 21.882812 52.953125 C 21.886719 56.574219 22.117188 57.167969 23.246094 56.507812 C 23.964844 56.089844 24.007812 55.75 23.828125 52.015625 L 23.632812 47.980469 L 22.753906 48.917969 M 22.265625 57.761719 C 22.265625 58.253906 24.175781 64.03125 24.597656 64.820312 C 24.886719 65.359375 23.597656 66.839844 17.75 72.679688 C 13.789062 76.636719 10.546875 80.140625 10.546875 80.460938 C 10.546875 80.785156 14.15625 77.445312 18.570312 73.042969 C 23.679688 67.945312 26.527344 64.828125 26.410156 64.453125 C 25.566406 61.714844 24.046875 57.953125 23.6875 57.71875 C 23.074219 57.324219 22.265625 57.351562 22.265625 57.761719 M 16.507812 64.648438 C 16.089844 66.011719 16.09375 66.015625 17.320312 66.011719 C 18 66.007812 18.949219 65.898438 19.429688 65.769531 C 20.253906 65.550781 20.210938 65.46875 18.75 64.410156 C 17.894531 63.789062 17.132812 63.28125 17.0625 63.28125 C 16.988281 63.28125 16.738281 63.894531 16.507812 64.648438 "/>
<path style=" stroke:none;fill-rule:evenodd;fill:rgb(93.333333%,7.058824%,49.803922%);fill-opacity:1;" d="M 81.359375 26.675781 L 73.496094 34.570312 L 74.484375 35.9375 C 75.871094 37.851562 78.324219 43.179688 78.878906 45.484375 C 79.136719 46.546875 79.449219 48.886719 79.578125 50.6875 L 79.808594 53.964844 L 80.742188 53.027344 C 81.660156 52.113281 81.671875 52.015625 81.265625 48.757812 C 80.640625 43.734375 78.613281 38.472656 75.679688 34.277344 C 75.257812 33.679688 76.082031 32.714844 82.40625 26.382812 C 86.371094 22.414062 89.523438 19.082031 89.417969 18.972656 C 89.308594 18.867188 85.683594 22.332031 81.359375 26.675781 M 79.632812 31.933594 C 77.925781 33.992188 77.925781 34 79.65625 33.320312 C 81.367188 32.648438 81.546875 32.375 80.722656 31.691406 C 80.324219 31.359375 80.0625 31.417969 79.632812 31.933594 M 85.449219 35.105469 C 84.429688 35.671875 83.59375 36.238281 83.59375 36.363281 C 83.59375 36.492188 84.316406 36.8125 85.195312 37.074219 C 86.078125 37.339844 87.046875 37.648438 87.34375 37.765625 C 87.769531 37.925781 87.890625 37.527344 87.890625 35.980469 C 87.890625 34.882812 87.757812 34.003906 87.597656 34.03125 C 87.4375 34.054688 86.46875 34.539062 85.449219 35.105469 M 84.117188 50.097656 C 79.507812 54.773438 79.398438 54.929688 79.132812 57.007812 C 78.265625 63.761719 73.367188 71.125 66.878906 75.417969 C 57.941406 81.324219 46.792969 81.578125 37.386719 76.09375 C 36.355469 75.492188 35.285156 75 35.007812 75 C 34.183594 75 29.6875 79.925781 29.6875 80.824219 C 29.6875 81.273438 29.824219 81.640625 29.992188 81.640625 C 30.160156 81.640625 31.339844 80.585938 32.617188 79.296875 C 33.894531 78.007812 35.113281 76.953125 35.332031 76.953125 C 35.550781 76.953125 33.890625 78.796875 31.640625 81.054688 C 29.390625 83.308594 27.808594 85.15625 28.125 85.15625 C 28.4375 85.15625 30.390625 83.472656 32.457031 81.410156 L 36.214844 77.664062 L 38.585938 78.863281 C 47.4375 83.328125 58.507812 82.796875 67.289062 77.484375 C 70.414062 75.589844 75.199219 70.804688 77.09375 67.679688 C 79.085938 64.386719 80.851562 59.398438 81.132812 56.277344 L 81.363281 53.710938 L 85.484375 49.511719 C 87.75 47.203125 89.429688 45.3125 89.214844 45.3125 C 89 45.3125 86.707031 47.464844 84.117188 50.097656 M 54.6875 48.585938 C 54.6875 48.664062 54.996094 48.972656 55.371094 49.269531 C 55.992188 49.753906 56.003906 49.742188 55.519531 49.121094 C 55.007812 48.46875 54.6875 48.265625 54.6875 48.585938 M 22.550781 69.832031 C 20.246094 72.144531 18.359375 74.207031 18.359375 74.414062 C 18.359375 74.621094 20.027344 73.128906 22.0625 71.101562 C 24.28125 68.890625 25.902344 67.5625 26.09375 67.789062 C 26.273438 67.996094 27.328125 69.328125 28.4375 70.746094 C 31.035156 74.078125 33.015625 75.640625 33.808594 74.984375 C 34.289062 74.582031 33.957031 74.066406 31.671875 71.65625 C 30.179688 70.089844 28.554688 68.09375 28.054688 67.21875 C 27.554688 66.34375 27.058594 65.628906 26.945312 65.628906 C 26.835938 65.625 24.859375 67.515625 22.550781 69.832031 M 34.203125 84.851562 C 33.398438 86 33.433594 86.328125 34.375 86.328125 C 34.984375 86.328125 35.15625 86.066406 35.15625 85.15625 C 35.15625 83.757812 35.003906 83.707031 34.203125 84.851562 "/>
<path style=" stroke:none;fill-rule:evenodd;fill:rgb(100%,100%,100%);fill-opacity:1;" d="M 0 50 L 0 100.003906 L 50.097656 99.902344 L 100.195312 99.804688 L 100.292969 49.902344 L 100.394531 0 L 0 0 L 0 50 M 0.191406 50.195312 C 0.191406 77.695312 0.234375 88.886719 0.292969 75.066406 C 0.351562 61.246094 0.351562 38.746094 0.292969 25.066406 C 0.234375 11.386719 0.191406 22.695312 0.191406 50.195312 M 68.652344 17.875 C 68.238281 17.964844 67.96875 18.386719 67.96875 18.949219 C 67.96875 20.355469 68.597656 20.445312 69.148438 19.125 C 69.695312 17.804688 69.632812 17.65625 68.652344 17.875 M 81.359375 26.675781 L 73.496094 34.570312 L 74.484375 35.9375 C 75.871094 37.851562 78.324219 43.179688 78.878906 45.484375 C 79.136719 46.546875 79.449219 48.886719 79.578125 50.6875 L 79.808594 53.964844 L 80.742188 53.027344 C 81.660156 52.113281 81.671875 52.015625 81.265625 48.757812 C 80.640625 43.734375 78.613281 38.472656 75.679688 34.277344 C 75.257812 33.679688 76.082031 32.714844 82.40625 26.382812 C 86.371094 22.414062 89.523438 19.082031 89.417969 18.972656 C 89.308594 18.867188 85.683594 22.332031 81.359375 26.675781 M 65.078125 20.25 C 64.941406 20.46875 65.023438 20.765625 65.253906 20.910156 C 65.855469 21.28125 66.242188 20.773438 65.742188 20.273438 C 65.460938 19.992188 65.242188 19.984375 65.078125 20.25 M 79.507812 26.15625 L 73.675781 32 L 71.625 30.0625 C 70.5 28.996094 69.433594 28.125 69.257812 28.125 C 69.078125 28.125 66.390625 30.671875 63.28125 33.789062 C 60.171875 36.90625 57.804688 39.453125 58.019531 39.453125 C 58.234375 39.453125 60.601562 37.253906 63.28125 34.570312 C 65.960938 31.882812 68.25 29.6875 68.375 29.6875 C 68.496094 29.6875 69.566406 30.554688 70.753906 31.613281 L 72.914062 33.539062 L 79.519531 26.925781 C 83.152344 23.289062 85.949219 20.3125 85.734375 20.3125 C 85.519531 20.3125 82.71875 22.941406 79.507812 26.15625 M 69.316406 23.449219 L 66.570312 26.195312 L 63.648438 24.847656 C 59.4375 22.902344 55.09375 22.113281 50.019531 22.375 C 42.25 22.773438 36.238281 25.460938 30.632812 31.039062 C 27.632812 34.019531 26.796875 35.148438 25.253906 38.28125 C 24.25 40.320312 23.074219 43.398438 22.644531 45.117188 C 21.886719 48.132812 21.75 48.351562 18.847656 51.269531 C 17.191406 52.933594 16.015625 54.296875 16.226562 54.296875 C 16.441406 54.296875 18.246094 52.660156 20.238281 50.660156 C 23.765625 47.117188 23.890625 46.929688 25.15625 43.253906 C 26.738281 38.640625 28.878906 35.277344 32.335938 31.964844 C 37.648438 26.871094 43.03125 24.597656 50.480469 24.304688 C 56 24.085938 59.460938 24.773438 63.980469 26.992188 L 66.992188 28.472656 L 70.605469 24.886719 C 72.59375 22.917969 74.21875 21.167969 74.21875 21.003906 C 74.21875 20.839844 73.734375 20.703125 73.140625 20.703125 C 72.328125 20.703125 71.390625 21.375 69.316406 23.449219 M 79.632812 31.933594 C 77.925781 33.992188 77.925781 34 79.65625 33.320312 C 81.367188 32.648438 81.546875 32.375 80.722656 31.691406 C 80.324219 31.359375 80.0625 31.417969 79.632812 31.933594 M 85.449219 35.105469 C 84.429688 35.671875 83.59375 36.238281 83.59375 36.363281 C 83.59375 36.492188 84.316406 36.8125 85.195312 37.074219 C 86.078125 37.339844 87.046875 37.648438 87.34375 37.765625 C 87.769531 37.925781 87.890625 37.527344 87.890625 35.980469 C 87.890625 34.882812 87.757812 34.003906 87.597656 34.03125 C 87.4375 34.054688 86.46875 34.539062 85.449219 35.105469 M 65.113281 41.269531 C 64.558594 41.820312 64.871094 42.578125 65.652344 42.578125 C 66.199219 42.578125 66.421875 42.367188 66.335938 41.925781 C 66.199219 41.207031 65.53125 40.847656 65.113281 41.269531 M 67.792969 43.273438 C 67.429688 43.636719 67.554688 44.847656 67.96875 44.988281 C 68.183594 45.058594 68.492188 46.949219 68.652344 49.1875 C 68.835938 51.753906 69.117188 53.3125 69.410156 53.410156 C 69.710938 53.511719 69.917969 52.96875 69.996094 51.878906 L 70.117188 50.195312 L 71.289062 52.050781 C 73.089844 54.902344 73.808594 54.191406 72.234375 51.113281 L 71.421875 49.519531 L 72.429688 48.46875 C 73.867188 46.972656 73.808594 45.132812 72.304688 44.355469 C 70.957031 43.660156 68.09375 42.972656 67.792969 43.273438 M 58.203125 43.953125 C 58.203125 44.296875 58.675781 44.644531 59.320312 44.773438 L 60.4375 44.996094 L 60.703125 49.125 C 60.851562 51.394531 61.0625 53.402344 61.175781 53.585938 C 61.773438 54.550781 62.109375 53.035156 62.109375 49.390625 C 62.109375 45.351562 62.117188 45.3125 63.042969 45.3125 C 63.972656 45.3125 64.65625 44.394531 64.234375 43.714844 C 64.117188 43.519531 62.707031 43.359375 61.109375 43.359375 C 58.765625 43.359375 58.203125 43.476562 58.203125 43.953125 M 65.113281 43.613281 C 64.964844 43.757812 64.84375 46.136719 64.84375 48.894531 C 64.84375 53.671875 64.882812 53.90625 65.636719 53.90625 C 66.398438 53.90625 66.425781 53.707031 66.320312 48.761719 C 66.21875 43.976562 65.9375 42.785156 65.113281 43.613281 M 41.007812 46.3125 C 40.457031 47.753906 40.527344 48.046875 41.40625 48.046875 C 41.9375 48.046875 42.1875 47.785156 42.1875 47.234375 C 42.1875 46.066406 43.136719 46.523438 43.285156 47.757812 C 43.390625 48.652344 43.25 48.789062 42.113281 48.898438 C 41.023438 49.003906 40.800781 49.195312 40.695312 50.121094 C 40.53125 51.539062 41.222656 52.34375 42.601562 52.34375 C 43.207031 52.34375 43.84375 52.5625 44.011719 52.832031 C 44.367188 53.40625 44.863281 51.023438 44.898438 48.5625 C 44.917969 47.25 44.71875 46.773438 43.890625 46.121094 C 42.496094 45.023438 41.46875 45.09375 41.007812 46.3125 M 50.382812 46.3125 C 49.832031 47.757812 49.902344 48.046875 50.804688 48.046875 C 51.246094 48.046875 51.523438 47.90625 51.414062 47.734375 C 51.105469 47.234375 51.824219 46.359375 52.300781 46.652344 C 52.539062 46.800781 52.734375 47.339844 52.734375 47.851562 C 52.734375 48.613281 52.507812 48.800781 51.464844 48.902344 C 50.398438 49.003906 50.175781 49.199219 50.070312 50.121094 C 49.90625 51.539062 50.597656 52.34375 51.976562 52.34375 C 52.582031 52.34375 53.21875 52.5625 53.390625 52.832031 C 53.714844 53.34375 54.214844 50.886719 54.269531 48.515625 C 54.324219 45.980469 51.183594 44.203125 50.382812 46.3125 M 55.464844 46.582031 C 54.410156 48.308594 54.460938 48.515625 56.234375 49.941406 C 57.253906 50.761719 57.703125 51.390625 57.550781 51.789062 C 57.363281 52.28125 57.109375 52.191406 56.164062 51.292969 L 55.007812 50.195312 L 55.140625 51.132812 C 55.214844 51.648438 55.769531 52.4375 56.378906 52.890625 L 57.488281 53.710938 L 58.234375 52.789062 C 59.253906 51.535156 59.191406 51.164062 57.65625 49.367188 C 56.625 48.164062 56.410156 47.664062 56.703125 47.140625 C 57.195312 46.261719 57.8125 46.667969 57.8125 47.875 C 57.8125 49.070312 58.503906 49.117188 58.96875 47.949219 C 59.25 47.246094 59.125 46.894531 58.347656 46.191406 C 57.03125 44.996094 56.378906 45.085938 55.464844 46.582031 M 70.15625 46.578125 C 69.699219 48.875 69.882812 49.09375 71.117188 47.734375 C 72.355469 46.375 72.359375 45.921875 71.140625 45.601562 C 70.554688 45.449219 70.339844 45.664062 70.15625 46.578125 M 84.117188 50.097656 C 79.507812 54.773438 79.398438 54.929688 79.132812 57.007812 C 78.265625 63.761719 73.367188 71.125 66.878906 75.417969 C 57.941406 81.324219 46.792969 81.578125 37.386719 76.09375 C 36.355469 75.492188 35.285156 75 35.007812 75 C 34.183594 75 29.6875 79.925781 29.6875 80.824219 C 29.6875 81.273438 29.824219 81.640625 29.992188 81.640625 C 30.160156 81.640625 31.339844 80.585938 32.617188 79.296875 C 33.894531 78.007812 35.113281 76.953125 35.332031 76.953125 C 35.550781 76.953125 33.890625 78.796875 31.640625 81.054688 C 29.390625 83.308594 27.808594 85.15625 28.125 85.15625 C 28.4375 85.15625 30.390625 83.472656 32.457031 81.410156 L 36.214844 77.664062 L 38.585938 78.863281 C 47.4375 83.328125 58.507812 82.796875 67.289062 77.484375 C 70.414062 75.589844 75.199219 70.804688 77.09375 67.679688 C 79.085938 64.386719 80.851562 59.398438 81.132812 56.277344 L 81.363281 53.710938 L 85.484375 49.511719 C 87.75 47.203125 89.429688 45.3125 89.214844 45.3125 C 89 45.3125 86.707031 47.464844 84.117188 50.097656 M 45.75 48.121094 C 45.804688 51.007812 46.246094 53.226562 46.589844 52.34375 C 46.714844 52.019531 46.929688 50.746094 47.070312 49.511719 C 47.324219 47.226562 47.796875 46.640625 48.242188 48.046875 C 48.378906 48.476562 48.742188 48.828125 49.050781 48.828125 C 49.710938 48.828125 49.746094 48.457031 49.226562 47.089844 C 48.925781 46.300781 48.605469 46.097656 47.75 46.164062 C 47.148438 46.210938 46.441406 46.113281 46.179688 45.953125 C 45.820312 45.730469 45.714844 46.273438 45.75 48.121094 M 22.71875 48.953125 C 21.878906 49.851562 21.816406 50.210938 21.917969 53.578125 C 22.027344 57.101562 22.835938 60.636719 24.316406 64.0625 L 24.910156 65.429688 L 17.679688 72.707031 C 13.703125 76.710938 10.515625 80.183594 10.597656 80.425781 C 10.679688 80.667969 14.328125 77.277344 18.710938 72.890625 L 26.675781 64.917969 L 25.695312 62.441406 C 25.160156 61.078125 24.597656 59.460938 24.453125 58.847656 L 24.183594 57.734375 L 26.253906 58.011719 C 27.390625 58.167969 28.433594 58.359375 28.574219 58.441406 C 28.710938 58.523438 28.953125 59.867188 29.105469 61.425781 C 29.257812 62.984375 29.476562 64.414062 29.589844 64.601562 C 29.835938 65.015625 31.539062 62.097656 35 55.328125 C 36.945312 51.53125 37.460938 50.195312 37.117188 49.859375 C 36.777344 49.523438 35.167969 50.1875 30.625 52.539062 C 27.304688 54.257812 24.421875 55.71875 24.222656 55.789062 C 24.015625 55.859375 23.808594 54.1875 23.746094 51.949219 L 23.632812 47.980469 L 22.71875 48.953125 M 41.871094 50.289062 C 42.066406 51.304688 43.359375 51.421875 43.359375 50.417969 C 43.359375 49.859375 43.109375 49.609375 42.550781 49.609375 C 41.992188 49.609375 41.78125 49.820312 41.871094 50.289062 M 51.171875 50.390625 C 51.171875 50.910156 51.433594 51.171875 51.953125 51.171875 C 52.472656 51.171875 52.734375 50.910156 52.734375 50.390625 C 52.734375 49.871094 52.472656 49.609375 51.953125 49.609375 C 51.433594 49.609375 51.171875 49.871094 51.171875 50.390625 M 32.449219 54.464844 L 29.980469 56.957031 L 30.320312 58.796875 L 30.664062 60.636719 L 32.90625 56.421875 C 34.140625 54.101562 35.09375 52.152344 35.03125 52.089844 C 34.96875 52.027344 33.804688 53.09375 32.449219 54.464844 M 40.234375 55.859375 C 40.234375 56.113281 46.09375 56.25 57.03125 56.25 C 67.96875 56.25 73.828125 56.113281 73.828125 55.859375 C 73.828125 55.605469 67.96875 55.46875 57.03125 55.46875 C 46.09375 55.46875 40.234375 55.605469 40.234375 55.859375 M 16.507812 64.648438 C 16.089844 66.011719 16.09375 66.015625 17.320312 66.011719 C 18 66.007812 18.949219 65.898438 19.429688 65.769531 C 20.253906 65.550781 20.210938 65.46875 18.75 64.410156 C 17.894531 63.789062 17.132812 63.28125 17.0625 63.28125 C 16.988281 63.28125 16.738281 63.894531 16.507812 64.648438 M 22.550781 69.832031 C 20.246094 72.144531 18.359375 74.207031 18.359375 74.414062 C 18.359375 74.621094 20.027344 73.128906 22.0625 71.101562 C 24.28125 68.890625 25.902344 67.5625 26.09375 67.789062 C 26.273438 67.996094 27.328125 69.328125 28.4375 70.746094 C 31.035156 74.078125 33.015625 75.640625 33.808594 74.984375 C 34.289062 74.582031 33.957031 74.066406 31.671875 71.65625 C 30.179688 70.089844 28.554688 68.09375 28.054688 67.21875 C 27.554688 66.34375 27.058594 65.628906 26.945312 65.628906 C 26.835938 65.625 24.859375 67.515625 22.550781 69.832031 M 34.203125 84.851562 C 33.398438 86 33.433594 86.328125 34.375 86.328125 C 34.984375 86.328125 35.15625 86.066406 35.15625 85.15625 C 35.15625 83.757812 35.003906 83.707031 34.203125 84.851562 "/>
<path style=" stroke:none;fill-rule:evenodd;fill:rgb(7.843137%,7.843137%,7.843137%);fill-opacity:1;" d="M 65.019531 41.441406 C 64.617188 42.09375 65.519531 42.839844 66.058594 42.300781 C 66.511719 41.847656 66.226562 41.015625 65.625 41.015625 C 65.4375 41.015625 65.164062 41.207031 65.019531 41.441406 M 58.386719 43.769531 C 58.246094 44 58.644531 44.375 59.285156 44.617188 C 60.4375 45.050781 60.441406 45.0625 60.707031 49.152344 C 60.851562 51.40625 61.074219 53.417969 61.199219 53.621094 C 61.734375 54.488281 62.097656 52.671875 62.105469 49.121094 C 62.109375 45.371094 62.125 45.3125 63.039062 45.3125 C 63.921875 45.3125 64.6875 44.113281 64.148438 43.578125 C 63.753906 43.179688 58.644531 43.351562 58.386719 43.769531 M 67.578125 44.109375 C 67.578125 44.519531 67.757812 44.914062 67.972656 44.988281 C 68.191406 45.0625 68.464844 46.613281 68.585938 48.4375 C 68.703125 50.265625 68.878906 52.152344 68.976562 52.636719 C 69.269531 54.085938 69.867188 53.628906 69.996094 51.855469 L 70.117188 50.195312 L 71.289062 52.050781 C 73.089844 54.902344 73.808594 54.191406 72.234375 51.113281 L 71.421875 49.519531 L 72.429688 48.46875 C 73.089844 47.78125 73.4375 46.980469 73.4375 46.152344 C 73.4375 45.039062 73.234375 44.792969 71.777344 44.128906 C 69.535156 43.113281 67.578125 43.101562 67.578125 44.109375 M 64.929688 48.726562 C 65.027344 53.101562 65.121094 53.71875 65.722656 53.832031 C 66.34375 53.953125 66.40625 53.511719 66.40625 48.855469 C 66.40625 43.984375 66.371094 43.75 65.613281 43.75 C 64.851562 43.75 64.824219 43.949219 64.929688 48.726562 M 41.308594 45.574219 C 41.207031 45.753906 41.007812 46.382812 40.867188 46.972656 C 40.652344 47.875 40.738281 48.046875 41.398438 48.046875 C 41.9375 48.046875 42.1875 47.789062 42.1875 47.234375 C 42.1875 46.066406 43.136719 46.523438 43.285156 47.757812 C 43.390625 48.652344 43.25 48.789062 42.113281 48.898438 C 41.023438 49.003906 40.800781 49.195312 40.695312 50.121094 C 40.53125 51.546875 41.277344 52.414062 42.542969 52.265625 C 43.101562 52.203125 43.757812 52.40625 44 52.722656 C 44.351562 53.171875 44.511719 52.640625 44.734375 50.242188 C 44.988281 47.546875 44.9375 47.105469 44.289062 46.472656 C 43.453125 45.652344 41.582031 45.089844 41.308594 45.574219 M 50.382812 46.3125 C 49.863281 47.675781 49.902344 48.046875 50.558594 48.046875 C 50.867188 48.046875 51.234375 47.683594 51.375 47.242188 C 51.714844 46.171875 52.507812 46.488281 52.660156 47.757812 C 52.765625 48.652344 52.625 48.789062 51.488281 48.898438 C 50.398438 49.003906 50.175781 49.195312 50.070312 50.121094 C 49.90625 51.546875 50.652344 52.414062 51.917969 52.265625 C 52.476562 52.203125 53.125 52.398438 53.359375 52.699219 C 53.691406 53.125 53.855469 52.605469 54.066406 50.46875 C 54.375 47.339844 54.019531 46.265625 52.488281 45.683594 C 51.046875 45.136719 50.800781 45.210938 50.382812 46.3125 M 55.449219 46.710938 L 54.585938 48.109375 L 56.152344 49.738281 C 57.976562 51.632812 58.023438 53.066406 56.207031 51.324219 C 55.136719 50.300781 55.078125 50.289062 55.078125 51.070312 C 55.078125 51.953125 56.882812 53.628906 57.585938 53.398438 C 57.816406 53.324219 58.242188 52.78125 58.527344 52.195312 C 59.011719 51.207031 58.953125 51.019531 57.6875 49.472656 C 56.636719 48.191406 56.414062 47.660156 56.703125 47.140625 C 57.203125 46.25 57.8125 46.671875 57.8125 47.90625 C 57.8125 49.203125 58.75 48.914062 58.910156 47.566406 C 58.992188 46.871094 58.753906 46.367188 58.140625 45.9375 C 56.84375 45.027344 56.414062 45.152344 55.449219 46.710938 M 70.160156 46.21875 C 70.035156 46.6875 69.929688 47.5 69.925781 48.023438 L 69.921875 48.972656 L 71.101562 47.84375 C 72.40625 46.59375 72.429688 46.121094 71.210938 45.667969 C 70.558594 45.429688 70.34375 45.542969 70.160156 46.21875 M 45.703125 47.382812 C 45.703125 49.976562 46.152344 52.742188 46.535156 52.507812 C 46.722656 52.390625 46.878906 51.5625 46.878906 50.660156 C 46.890625 47.734375 47.667969 46.238281 48.242188 48.046875 C 48.378906 48.476562 48.742188 48.828125 49.050781 48.828125 C 49.710938 48.828125 49.746094 48.457031 49.226562 47.089844 C 48.925781 46.300781 48.605469 46.097656 47.75 46.164062 C 47.148438 46.210938 46.441406 46.113281 46.179688 45.953125 C 45.832031 45.738281 45.703125 46.125 45.703125 47.382812 M 28.964844 53.421875 L 21.800781 57.226562 L 23.300781 57.507812 C 24.128906 57.660156 25.679688 57.925781 26.753906 58.09375 L 28.703125 58.402344 L 28.976562 60.355469 C 29.128906 61.425781 29.363281 62.902344 29.5 63.632812 L 29.742188 64.957031 L 30.46875 63.761719 C 32.578125 60.292969 37.523438 50.355469 37.308594 50.007812 C 37.175781 49.789062 36.855469 49.609375 36.597656 49.609375 C 36.34375 49.613281 32.90625 51.328125 28.964844 53.421875 M 41.796875 50.390625 C 41.796875 51.300781 43.15625 51.488281 43.484375 50.625 C 43.75 49.9375 43.433594 49.609375 42.511719 49.609375 C 42.058594 49.609375 41.796875 49.894531 41.796875 50.390625 M 51.171875 50.390625 C 51.171875 50.910156 51.433594 51.171875 51.953125 51.171875 C 52.472656 51.171875 52.734375 50.910156 52.734375 50.390625 C 52.734375 49.871094 52.472656 49.609375 51.953125 49.609375 C 51.433594 49.609375 51.171875 49.871094 51.171875 50.390625 M 32.472656 54.402344 L 29.992188 56.796875 L 30.664062 60.679688 L 32.933594 56.472656 C 34.183594 54.15625 35.148438 52.203125 35.078125 52.132812 C 35.007812 52.0625 33.835938 53.085938 32.472656 54.402344 M 40.234375 55.859375 C 40.234375 56.113281 46.09375 56.25 57.03125 56.25 C 67.96875 56.25 73.828125 56.113281 73.828125 55.859375 C 73.828125 55.605469 67.96875 55.46875 57.03125 55.46875 C 46.09375 55.46875 40.234375 55.605469 40.234375 55.859375 "/>
</g>
</svg>
